<?xml version="1.0" encoding="UTF-8"?>
<!DOCTYPE svg PUBLIC "-//W3C//DTD SVG 1.1//EN" "http://www.w3.org/Graphics/SVG/1.1/DTD/svg11.dtd">
<!-- Creator: CorelDRAW 2018 -->
<svg xmlns="http://www.w3.org/2000/svg" xml:space="preserve" width="25px" height="25px" version="1.1" style="shape-rendering:geometricPrecision; text-rendering:geometricPrecision; image-rendering:optimizeQuality; fill-rule:evenodd; clip-rule:evenodd"
viewBox="0 0 0 0"
 xmlns:xlink="http://www.w3.org/1999/xlink">
 <defs>
  <style type="text/css">
   <![CDATA[
    .fil0 {fill:#27E51D}
    .fil2 {fill:#368EFF}
    .fil3 {fill:#FF0C06}
    .fil1 {fill:#FFF708}
   ]]>
  </style>
 </defs>
 <g id="Layer_x0020_1">
  <metadata id="CorelCorpID_0Corel-Layer"/>
  <g id="_591640376">
   <path class="fil0" d="M0 0c0,0 0,0 0,0l0 0c0,0 0,0 0,0l0 0z"/>
   <path class="fil1" d="M0 0c0,0 0,0 0,0l0 0c0,0 0,0 0,0l0 0z"/>
   <path class="fil2" d="M0 0c0,0 0,0 0,0l0 0c0,0 0,0 0,0l0 0z"/>
   <path class="fil3" d="M0 0c0,0 0,0 0,0l0 0c0,0 0,0 0,0l0 0z"/>
  </g>
 </g>
</svg>
